<?xml version="1.0" encoding="UTF-8"?>
<svg width="100px" height="115px" viewBox="0 0 100 115" version="1.1" xmlns="http://www.w3.org/2000/svg" xmlns:xlink="http://www.w3.org/1999/xlink">
    <!-- Generator: Sketch 51.1 (57501) - http://www.bohemiancoding.com/sketch -->
    <title>logo</title>
    <desc>Created with Sketch.</desc>
    <defs></defs>
    <g id="Page-1" stroke="none" stroke-width="1" fill="none" fill-rule="evenodd">
        <g id="appIcon" fill="#336799" fill-rule="nonzero">
            <path d="M100,34.667 C100,29.563 97.229,24.806 92.769,22.253 L57.231,1.92 C55.036,0.664 52.535,0 50,0 C47.465,0 44.964,0.664 42.769,1.92 L7.231,22.253 C2.771,24.806 0,29.563 0,34.667 L0,75.333 C0,80.438 2.771,85.194 7.232,87.746 L42.768,108.079 C44.964,109.336 47.465,110 50,110 C52.535,110 55.036,109.336 57.231,108.079 L92.769,87.746 C95.094,86.416 96.953,84.483 98.207,82.218 C99.359,80.138 100,77.776 100,75.333 L100,34.667 Z" id="Fill-1"></path>
        </g>
        <path d="M56.9842395,64.2785694 C56.9091673,64.2321611 56.8328334,64.1847654 56.7975054,64.1506997 C56.0978834,63.4876529 54.5049659,61.6332944 54.1769195,61.3217661 C53.9371933,61.0941678 53.5176725,60.7243822 53.3801454,60.6873543 C53.7801096,60.1610641 54.4791007,59.2141366 55.1780918,58.2884384 C55.3219276,58.4409935 55.4739644,58.6004604 55.6392493,58.7747385 C55.6392493,58.7747385 56.3407639,59.6283556 56.9514348,60.8828618 C57.3343659,61.5162862 57.5204691,62.4883926 57.5204691,62.4883926 L57.7721816,62.5570177 C57.7829062,62.7238902 57.81508,62.9297655 57.8655487,63.1425527 C57.7431621,63.5784948 57.5539046,63.8618818 57.3583385,64.0509711 C57.2656023,64.1102158 57.1343838,64.1901961 56.9842395,64.2785694 Z M63.8113892,46.2430072 L63.9148499,46.1126689 C63.9148499,46.1126689 64.2384803,45.9067936 64.4189058,45.6895631 C64.4189058,45.6895631 64.5595872,45.5256528 64.5999622,45.3538432 C64.5999622,45.3538432 64.6844972,45.1316757 64.7494756,45.00035 C69.4506325,48.3378004 61.6052773,42.7688003 63.7060358,44.2592978 C63.6643992,44.321011 63.6082528,44.4009913 63.5293955,44.5081254 C63.5293955,44.5081254 63.3729426,44.7451041 63.2972396,44.9124704 C63.2511869,45.0151611 63.1508804,45.2472028 63.0959957,45.4328362 C63.0619294,45.5493507 62.9559452,45.8559419 62.9559452,45.8559419 C62.9559452,45.8559419 62.9079999,46.0282452 62.8802422,46.0948955 C62.6411468,46.6700626 61.9402631,47.6076097 61.8368023,47.7720137 L61.1857565,48.89865 C61.1857565,48.89865 60.7523567,49.6081051 60.4369275,50.5338033 C60.4369275,50.5338033 59.0149727,52.0149203 57.6706134,53.4249437 C57.5311937,53.525166 57.2151336,53.6974693 56.8656381,53.7720188 C56.6814274,53.5824358 56.4499024,53.3059607 56.4347618,53.2901621 C56.3988029,53.2511593 56.3249924,53.1425441 56.3735685,53.0028254 C56.4227755,52.8631067 56.6820583,52.580707 56.6820583,52.580707 C56.8057065,52.4814722 56.8252631,52.3200304 56.7583922,52.2430123 C56.6908903,52.1645131 56.5710272,52.1215607 56.5306523,52.1032936 C56.4921699,52.0855202 56.4568418,52.0208448 56.4625196,51.9744364 C56.4663047,51.9431684 56.3702039,51.9285218 56.1742173,51.9304966 L56.1376275,51.7468381 C56.0083015,51.690062 55.8682509,51.5957642 55.8758212,51.5612048 C55.8840224,51.5266454 55.9199813,51.4318539 55.9199813,51.2881855 C55.9199813,51.1701899 55.7780382,51.1879633 55.7780382,51.1879633 C55.7780382,51.1879633 55.1591661,51.1785829 55.115006,51.1741395 C55.0721076,51.1701899 54.9219633,51.104527 54.8771724,51.0595998 C54.8330123,51.0141789 54.7617253,50.9638209 54.7617253,50.9638209 C54.6639422,50.9223496 54.0696736,50.8354574 53.9826152,50.8413819 C53.8961875,50.8468127 53.5195651,50.7949736 53.484237,50.7702883 C53.4489089,50.7446156 53.2710069,50.6858646 53.132218,50.6276073 C52.9934292,50.5698438 52.4679241,50.8808784 52.3385981,50.9509846 C52.209903,51.0201034 51.7216186,51.4308665 51.4289003,51.8213877 C51.3670762,51.9033428 51.3254395,51.9813483 51.292004,52.0608349 C51.2915835,52.0611641 51.1954827,52.2207956 51.0037017,52.5397294 C51.0037017,52.5397294 50.8857312,52.5876189 50.8264305,52.6320524 C50.7046749,52.7174635 50.6403273,52.8986535 50.6403273,52.8986535 C50.6403273,52.8986535 50.5053236,53.4367927 50.418896,53.6826581 C50.418896,53.6826581 50.3375153,54.1462477 50.2870466,54.3363244 C50.2567654,54.4518516 50.1545663,55.1381024 50.1312246,55.2467177 C50.1078828,55.3548392 50.0485821,55.8628624 50.0485821,55.8628624 C50.0485821,55.8628624 49.9993752,56.1645166 50.000006,56.3531121 C50.0006369,56.5071483 50.1205,56.5777482 50.1482577,56.5940405 C50.1753847,56.6098391 50.3570719,56.7036432 50.3570719,56.7036432 C50.3570719,56.7036432 50.1924178,57.3602717 50.5696712,57.8441033 C50.5696712,57.8441033 50.5854426,57.6925356 50.775331,57.4382772 C50.775331,57.4382772 51.0207349,57.6076183 50.8750066,58.0746638 C50.8750066,58.0746638 51.2144085,57.9640738 51.2686623,57.4338339 L51.4005117,57.0995951 C51.4005117,57.0995951 51.4654901,57.4284031 51.9064601,57.6110742 C51.9064601,57.6110742 51.5670583,57.0097407 51.5468708,56.7584445 C51.5247908,56.47407 51.5758903,56.190683 51.5758903,56.190683 C51.5758903,56.190683 51.7373901,56.3560744 51.6944917,56.6893257 C51.6944917,56.6893257 52.0313701,56.0593573 51.5948161,55.0191194 C51.4989256,54.7490624 51.3771699,54.2390644 51.2427971,53.8001601 C51.2131467,53.7053686 51.145014,53.3207718 51.1368129,53.2526405 C51.1248266,53.162786 51.1891741,53.1168714 51.1891741,53.1168714 C51.2055764,53.1213147 51.3519356,53.2378293 51.4068203,53.2664642 C51.4566581,53.3602683 51.5405622,53.4945562 51.6900757,53.6500735 C51.719726,53.672784 52.0679599,54.0114661 52.8704118,54.2183288 C52.9827046,54.2558504 53.2962412,54.3126265 53.5750806,54.3146014 C53.8842012,54.3160825 54.0393924,54.2321525 54.1920601,54.204505 C54.3403119,54.1773512 54.4879327,54.2662182 54.4879327,54.2662182 C54.4879327,54.2662182 54.6406005,54.4177859 54.8090397,54.5841647 C54.8084088,54.5915703 54.9080844,54.736226 54.8090397,54.8858188 C54.2822729,55.3020127 53.5435377,55.9867825 53.5567857,56.566393 C52.7171132,57.9788849 51.5847223,60.206485 51.4566581,60.4330959 C51.4566581,60.4330959 51.3052521,60.7135207 51.2989435,60.9282827 C51.2838029,61.0872559 51.4976639,61.2013019 51.6288824,61.3331213 C51.7090014,61.4135954 51.9285402,61.6643979 52.0231689,61.7522775 C52.3758188,62.0781232 52.7246835,62.3323816 53.1448352,62.6587211 L56.1212252,64.7411717 C55.8758212,64.8601547 55.614015,64.977163 55.3440076,65.0788664 C55.3730271,65.9823477 57.0517413,67.1948889 57.0517413,67.1948889 C58.2970558,67.2363602 58.8452718,66.34769 58.8452718,66.34769 C58.826346,65.4891358 57.8901521,64.3723735 57.8901521,64.3723735 L57.7248672,64.1600801 C57.8485155,64.0001194 57.9494528,63.8253476 58.033357,63.6367521 C58.1077983,63.7981938 58.1961185,63.9566733 58.3178741,64.0988606 C58.3178741,64.0988606 58.9752286,64.8226331 60.0539965,64.9663015 C60.4773025,65.2403081 62.7818282,66.6251525 66.9070114,67.2541336 C66.9391852,67.3084412 66.9707281,67.3676859 67.002271,67.4387795 C67.0804974,67.6179947 67.3240088,68.3032582 67.3990809,68.4553195 C67.5435475,68.7441373 67.8495138,69.2659842 68.3226577,69.8475695 L69.4657731,71.254137 L69.7326262,71.220565 C69.840503,71.3563341 69.9628895,71.5706024 69.866999,71.7670972 C69.866999,71.7670972 68.9781195,72.2351302 69.8878174,73.1030648 C69.8878174,73.1030648 70.0865378,73.2042745 70.2669633,73.1845262 C70.5912245,73.1489794 71.0050676,73.2294535 71.5217406,73.6856375 C71.5217406,73.6856375 72.1954974,74.3057318 72.9064749,74.2213082 L73.4742474,74.0944258 C73.4742474,74.0944258 73.9675787,73.9971658 73.1140273,73.1489794 C72.5109266,72.5496207 72.4219756,72.3259721 72.1311499,72.1038045 C71.8403241,71.8816369 71.4573931,71.6861295 71.4573931,71.6861295 L70.8795268,70.5145659 L70.9728938,70.3713913 L70.1868443,68.9786475 L68.8115729,66.3881738 C68.7459636,66.2296943 68.8178815,65.9458135 68.5800479,65.7399383 C68.5813096,65.7389508 68.4746945,65.6416908 68.3800658,65.592814 C68.2349683,65.5118462 68.0772537,65.4372967 67.9132305,65.3721275 L63.7665982,63.2575861 C63.7665982,63.2575861 65.104018,63.3128811 68.6443954,61.514805 C69.0494065,61.8110284 69.9414403,62.1492168 70.6170897,62.2760992 C71.8819608,62.5140653 73.1846834,62.910511 73.1846834,62.910511 C73.1846834,62.910511 73.2830973,62.8710145 73.3386129,62.7110539 C73.3386129,62.7110539 74.1234007,62.8502789 74.7435345,63.1311974 C74.7971575,63.1632883 74.8242844,63.2008099 74.8539348,63.2551176 C74.8539348,63.2551176 74.7611986,63.3731132 74.7750775,63.4402572 C74.7895872,63.5074012 75.0905067,63.5972556 75.0905067,63.5972556 C75.0905067,63.5972556 75.5781602,64.213894 76.0241771,64.0470215 C76.0241771,64.0470215 76.5843794,63.910265 76.7073968,63.6130542 C76.7073968,63.6130542 76.835461,63.1035499 77.8170767,62.8112762 C77.8170767,62.8112762 78.7986924,62.5190024 79.014446,61.999624 C79.014446,61.999624 79.3494318,61.3948346 78.0391389,61.6199643 L76.3585321,62.071705 L75.2848111,62.3486739 L73.7751669,61.7206803 C73.7764286,61.6785508 73.418101,61.5223752 72.7001842,61.2521536 C72.130519,60.9692603 70.7218122,60.2805408 69.8285167,59.9467958 C69.6033002,59.8475609 69.3377088,59.738452 69.3383397,59.7374646 C68.9043091,59.5696046 68.9781195,59.4130999 68.1043806,59.624406 L61.9654975,60.9539554 C61.7213553,60.5802202 61.165569,59.6841444 61.0349813,59.0729367 L60.3221113,57.2936215 C60.3221113,57.2936215 61.1908033,56.7377089 60.8116574,56.1344005 C60.8116574,56.1344005 60.7536185,56.0272664 60.3542851,55.7651087 C60.3542851,55.7651087 59.9328717,55.4906083 59.4155678,55.1000871 C60.3517617,53.669328 61.7156775,51.6806816 62.0733743,50.9811006 C62.0733743,50.9811006 62.4897408,50.3397769 62.7282053,49.4876409 L63.8113892,46.2430072 Z" id="Fill-4" fill="#FFFFFF" fill-rule="nonzero"></path>
        <path d="M41.9842395,104.278569 C41.9091673,104.232161 41.8328334,104.184765 41.7975054,104.1507 C41.0978834,103.487653 39.5049659,101.633294 39.1769195,101.321766 C38.9371933,101.094168 38.5176725,100.724382 38.3801454,100.687354 C38.7801096,100.161064 39.4791007,99.2141366 40.1780918,98.2884384 C40.3219276,98.4409935 40.4739644,98.6004604 40.6392493,98.7747385 C40.6392493,98.7747385 41.3407639,99.6283556 41.9514348,100.882862 C42.3343659,101.516286 42.5204691,102.488393 42.5204691,102.488393 L42.7721816,102.557018 C42.7829062,102.72389 42.81508,102.929766 42.8655487,103.142553 C42.7431621,103.578495 42.5539046,103.861882 42.3583385,104.050971 C42.2656023,104.110216 42.1343838,104.190196 41.9842395,104.278569 Z M48.8113892,86.2430072 L48.9148499,86.1126689 C48.9148499,86.1126689 49.2384803,85.9067936 49.4189058,85.6895631 C49.4189058,85.6895631 49.5595872,85.5256528 49.5999622,85.3538432 C49.5999622,85.3538432 49.6844972,85.1316757 49.7494756,85.00035 C54.4506325,88.3378004 46.6052773,82.7688003 48.7060358,84.2592978 C48.6643992,84.321011 48.6082528,84.4009913 48.5293955,84.5081254 C48.5293955,84.5081254 48.3729426,84.7451041 48.2972396,84.9124704 C48.2511869,85.0151611 48.1508804,85.2472028 48.0959957,85.4328362 C48.0619294,85.5493507 47.9559452,85.8559419 47.9559452,85.8559419 C47.9559452,85.8559419 47.9079999,86.0282452 47.8802422,86.0948955 C47.6411468,86.6700626 46.9402631,87.6076097 46.8368023,87.7720137 L46.1857565,88.89865 C46.1857565,88.89865 45.7523567,89.6081051 45.4369275,90.5338033 C45.4369275,90.5338033 44.0149727,92.0149203 42.6706134,93.4249437 C42.5311937,93.525166 42.2151336,93.6974693 41.8656381,93.7720188 C41.6814274,93.5824358 41.4499024,93.3059607 41.4347618,93.2901621 C41.3988029,93.2511593 41.3249924,93.1425441 41.3735685,93.0028254 C41.4227755,92.8631067 41.6820583,92.580707 41.6820583,92.580707 C41.8057065,92.4814722 41.8252631,92.3200304 41.7583922,92.2430123 C41.6908903,92.1645131 41.5710272,92.1215607 41.5306523,92.1032936 C41.4921699,92.0855202 41.4568418,92.0208448 41.4625196,91.9744364 C41.4663047,91.9431684 41.3702039,91.9285218 41.1742173,91.9304966 L41.1376275,91.7468381 C41.0083015,91.690062 40.8682509,91.5957642 40.8758212,91.5612048 C40.8840224,91.5266454 40.9199813,91.4318539 40.9199813,91.2881855 C40.9199813,91.1701899 40.7780382,91.1879633 40.7780382,91.1879633 C40.7780382,91.1879633 40.1591661,91.1785829 40.115006,91.1741395 C40.0721076,91.1701899 39.9219633,91.104527 39.8771724,91.0595998 C39.8330123,91.0141789 39.7617253,90.9638209 39.7617253,90.9638209 C39.6639422,90.9223496 39.0696736,90.8354574 38.9826152,90.8413819 C38.8961875,90.8468127 38.5195651,90.7949736 38.484237,90.7702883 C38.4489089,90.7446156 38.2710069,90.6858646 38.132218,90.6276073 C37.9934292,90.5698438 37.4679241,90.8808784 37.3385981,90.9509846 C37.209903,91.0201034 36.7216186,91.4308665 36.4289003,91.8213877 C36.3670762,91.9033428 36.3254395,91.9813483 36.292004,92.0608349 C36.2915835,92.0611641 36.1954827,92.2207956 36.0037017,92.5397294 C36.0037017,92.5397294 35.8857312,92.5876189 35.8264305,92.6320524 C35.7046749,92.7174635 35.6403273,92.8986535 35.6403273,92.8986535 C35.6403273,92.8986535 35.5053236,93.4367927 35.418896,93.6826581 C35.418896,93.6826581 35.3375153,94.1462477 35.2870466,94.3363244 C35.2567654,94.4518516 35.1545663,95.1381024 35.1312246,95.2467177 C35.1078828,95.3548392 35.0485821,95.8628624 35.0485821,95.8628624 C35.0485821,95.8628624 34.9993752,96.1645166 35.000006,96.3531121 C35.0006369,96.5071483 35.1205,96.5777482 35.1482577,96.5940405 C35.1753847,96.6098391 35.3570719,96.7036432 35.3570719,96.7036432 C35.3570719,96.7036432 35.1924178,97.3602717 35.5696712,97.8441033 C35.5696712,97.8441033 35.5854426,97.6925356 35.775331,97.4382772 C35.775331,97.4382772 36.0207349,97.6076183 35.8750066,98.0746638 C35.8750066,98.0746638 36.2144085,97.9640738 36.2686623,97.4338339 L36.4005117,97.0995951 C36.4005117,97.0995951 36.4654901,97.4284031 36.9064601,97.6110742 C36.9064601,97.6110742 36.5670583,97.0097407 36.5468708,96.7584445 C36.5247908,96.47407 36.5758903,96.190683 36.5758903,96.190683 C36.5758903,96.190683 36.7373901,96.3560744 36.6944917,96.6893257 C36.6944917,96.6893257 37.0313701,96.0593573 36.5948161,95.0191194 C36.4989256,94.7490624 36.3771699,94.2390644 36.2427971,93.8001601 C36.2131467,93.7053686 36.145014,93.3207718 36.1368129,93.2526405 C36.1248266,93.162786 36.1891741,93.1168714 36.1891741,93.1168714 C36.2055764,93.1213147 36.3519356,93.2378293 36.4068203,93.2664642 C36.4566581,93.3602683 36.5405622,93.4945562 36.6900757,93.6500735 C36.719726,93.672784 37.0679599,94.0114661 37.8704118,94.2183288 C37.9827046,94.2558504 38.2962412,94.3126265 38.5750806,94.3146014 C38.8842012,94.3160825 39.0393924,94.2321525 39.1920601,94.204505 C39.3403119,94.1773512 39.4879327,94.2662182 39.4879327,94.2662182 C39.4879327,94.2662182 39.6406005,94.4177859 39.8090397,94.5841647 C39.8084088,94.5915703 39.9080844,94.736226 39.8090397,94.8858188 C39.2822729,95.3020127 38.5435377,95.9867825 38.5567857,96.566393 C37.7171132,97.9788849 36.5847223,100.206485 36.4566581,100.433096 C36.4566581,100.433096 36.3052521,100.713521 36.2989435,100.928283 C36.2838029,101.087256 36.4976639,101.201302 36.6288824,101.333121 C36.7090014,101.413595 36.9285402,101.664398 37.0231689,101.752277 C37.3758188,102.078123 37.7246835,102.332382 38.1448352,102.658721 L41.1212252,104.741172 C40.8758212,104.860155 40.614015,104.977163 40.3440076,105.078866 C40.3730271,105.982348 42.0517413,107.194889 42.0517413,107.194889 C43.2970558,107.23636 43.8452718,106.34769 43.8452718,106.34769 C43.826346,105.489136 42.8901521,104.372374 42.8901521,104.372374 L42.7248672,104.16008 C42.8485155,104.000119 42.9494528,103.825348 43.033357,103.636752 C43.1077983,103.798194 43.1961185,103.956673 43.3178741,104.098861 C43.3178741,104.098861 43.9752286,104.822633 45.0539965,104.966301 C45.4773025,105.240308 47.7818282,106.625153 51.9070114,107.254134 C51.9391852,107.308441 51.9707281,107.367686 52.002271,107.43878 C52.0804974,107.617995 52.3240088,108.303258 52.3990809,108.45532 C52.5435475,108.744137 52.8495138,109.265984 53.3226577,109.84757 L54.4657731,111.254137 L54.7326262,111.220565 C54.840503,111.356334 54.9628895,111.570602 54.866999,111.767097 C54.866999,111.767097 53.9781195,112.23513 54.8878174,113.103065 C54.8878174,113.103065 55.0865378,113.204274 55.2669633,113.184526 C55.5912245,113.148979 56.0050676,113.229453 56.5217406,113.685638 C56.5217406,113.685638 57.1954974,114.305732 57.9064749,114.221308 L58.4742474,114.094426 C58.4742474,114.094426 58.9675787,113.997166 58.1140273,113.148979 C57.5109266,112.549621 57.4219756,112.325972 57.1311499,112.103804 C56.8403241,111.881637 56.4573931,111.686129 56.4573931,111.686129 L55.8795268,110.514566 L55.9728938,110.371391 L55.1868443,108.978648 L53.8115729,106.388174 C53.7459636,106.229694 53.8178815,105.945814 53.5800479,105.739938 C53.5813096,105.738951 53.4746945,105.641691 53.3800658,105.592814 C53.2349683,105.511846 53.0772537,105.437297 52.9132305,105.372128 L48.7665982,103.257586 C48.7665982,103.257586 50.104018,103.312881 53.6443954,101.514805 C54.0494065,101.811028 54.9414403,102.149217 55.6170897,102.276099 C56.8819608,102.514065 58.1846834,102.910511 58.1846834,102.910511 C58.1846834,102.910511 58.2830973,102.871015 58.3386129,102.711054 C58.3386129,102.711054 59.1234007,102.850279 59.7435345,103.131197 C59.7971575,103.163288 59.8242844,103.20081 59.8539348,103.255118 C59.8539348,103.255118 59.7611986,103.373113 59.7750775,103.440257 C59.7895872,103.507401 60.0905067,103.597256 60.0905067,103.597256 C60.0905067,103.597256 60.5781602,104.213894 61.0241771,104.047021 C61.0241771,104.047021 61.5843794,103.910265 61.7073968,103.613054 C61.7073968,103.613054 61.835461,103.10355 62.8170767,102.811276 C62.8170767,102.811276 63.7986924,102.519002 64.014446,101.999624 C64.014446,101.999624 64.3494318,101.394835 63.0391389,101.619964 L61.3585321,102.071705 L60.2848111,102.348674 L58.7751669,101.72068 C58.7764286,101.678551 58.418101,101.522375 57.7001842,101.252154 C57.130519,100.96926 55.7218122,100.280541 54.8285167,99.9467958 C54.6033002,99.8475609 54.3377088,99.738452 54.3383397,99.7374646 C53.9043091,99.5696046 53.9781195,99.4130999 53.1043806,99.624406 L46.9654975,100.953955 C46.7213553,100.58022 46.165569,99.6841444 46.0349813,99.0729367 L45.3221113,97.2936215 C45.3221113,97.2936215 46.1908033,96.7377089 45.8116574,96.1344005 C45.8116574,96.1344005 45.7536185,96.0272664 45.3542851,95.7651087 C45.3542851,95.7651087 44.9328717,95.4906083 44.4155678,95.1000871 C45.3517617,93.669328 46.7156775,91.6806816 47.0733743,90.9811006 C47.0733743,90.9811006 47.4897408,90.3397769 47.7282053,89.4876409 L48.8113892,86.2430072 Z" id="Fill-4" fill="#FFFFFF" fill-rule="nonzero"></path>
        <path d="M63.9842395,45.2785694 C63.9091673,45.2321611 63.8328334,45.1847654 63.7975054,45.1506997 C63.0978834,44.4876529 61.5049659,42.6332944 61.1769195,42.3217661 C60.9371933,42.0941678 60.5176725,41.7243822 60.3801454,41.6873543 C60.7801096,41.1610641 61.4791007,40.2141366 62.1780918,39.2884384 C62.3219276,39.4409935 62.4739644,39.6004604 62.6392493,39.7747385 C62.6392493,39.7747385 63.3407639,40.6283556 63.9514348,41.8828618 C64.3343659,42.5162862 64.5204691,43.4883926 64.5204691,43.4883926 L64.7721816,43.5570177 C64.7829062,43.7238902 64.81508,43.9297655 64.8655487,44.1425527 C64.7431621,44.5784948 64.5539046,44.8618818 64.3583385,45.0509711 C64.2656023,45.1102158 64.1343838,45.1901961 63.9842395,45.2785694 Z M70.8113892,27.2430072 L70.9148499,27.1126689 C70.9148499,27.1126689 71.2384803,26.9067936 71.4189058,26.6895631 C71.4189058,26.6895631 71.5595872,26.5256528 71.5999622,26.3538432 C71.5999622,26.3538432 71.6844972,26.1316757 71.7494756,26.00035 C76.4506325,29.3378004 68.6052773,23.7688003 70.7060358,25.2592978 C70.6643992,25.321011 70.6082528,25.4009913 70.5293955,25.5081254 C70.5293955,25.5081254 70.3729426,25.7451041 70.2972396,25.9124704 C70.2511869,26.0151611 70.1508804,26.2472028 70.0959957,26.4328362 C70.0619294,26.5493507 69.9559452,26.8559419 69.9559452,26.8559419 C69.9559452,26.8559419 69.9079999,27.0282452 69.8802422,27.0948955 C69.6411468,27.6700626 68.9402631,28.6076097 68.8368023,28.7720137 L68.1857565,29.89865 C68.1857565,29.89865 67.7523567,30.6081051 67.4369275,31.5338033 C67.4369275,31.5338033 66.0149727,33.0149203 64.6706134,34.4249437 C64.5311937,34.525166 64.2151336,34.6974693 63.8656381,34.7720188 C63.6814274,34.5824358 63.4499024,34.3059607 63.4347618,34.2901621 C63.3988029,34.2511593 63.3249924,34.1425441 63.3735685,34.0028254 C63.4227755,33.8631067 63.6820583,33.580707 63.6820583,33.580707 C63.8057065,33.4814722 63.8252631,33.3200304 63.7583922,33.2430123 C63.6908903,33.1645131 63.5710272,33.1215607 63.5306523,33.1032936 C63.4921699,33.0855202 63.4568418,33.0208448 63.4625196,32.9744364 C63.4663047,32.9431684 63.3702039,32.9285218 63.1742173,32.9304966 L63.1376275,32.7468381 C63.0083015,32.690062 62.8682509,32.5957642 62.8758212,32.5612048 C62.8840224,32.5266454 62.9199813,32.4318539 62.9199813,32.2881855 C62.9199813,32.1701899 62.7780382,32.1879633 62.7780382,32.1879633 C62.7780382,32.1879633 62.1591661,32.1785829 62.115006,32.1741395 C62.0721076,32.1701899 61.9219633,32.104527 61.8771724,32.0595998 C61.8330123,32.0141789 61.7617253,31.9638209 61.7617253,31.9638209 C61.6639422,31.9223496 61.0696736,31.8354574 60.9826152,31.8413819 C60.8961875,31.8468127 60.5195651,31.7949736 60.484237,31.7702883 C60.4489089,31.7446156 60.2710069,31.6858646 60.132218,31.6276073 C59.9934292,31.5698438 59.4679241,31.8808784 59.3385981,31.9509846 C59.209903,32.0201034 58.7216186,32.4308665 58.4289003,32.8213877 C58.3670762,32.9033428 58.3254395,32.9813483 58.292004,33.0608349 C58.2915835,33.0611641 58.1954827,33.2207956 58.0037017,33.5397294 C58.0037017,33.5397294 57.8857312,33.5876189 57.8264305,33.6320524 C57.7046749,33.7174635 57.6403273,33.8986535 57.6403273,33.8986535 C57.6403273,33.8986535 57.5053236,34.4367927 57.418896,34.6826581 C57.418896,34.6826581 57.3375153,35.1462477 57.2870466,35.3363244 C57.2567654,35.4518516 57.1545663,36.1381024 57.1312246,36.2467177 C57.1078828,36.3548392 57.0485821,36.8628624 57.0485821,36.8628624 C57.0485821,36.8628624 56.9993752,37.1645166 57.000006,37.3531121 C57.0006369,37.5071483 57.1205,37.5777482 57.1482577,37.5940405 C57.1753847,37.6098391 57.3570719,37.7036432 57.3570719,37.7036432 C57.3570719,37.7036432 57.1924178,38.3602717 57.5696712,38.8441033 C57.5696712,38.8441033 57.5854426,38.6925356 57.775331,38.4382772 C57.775331,38.4382772 58.0207349,38.6076183 57.8750066,39.0746638 C57.8750066,39.0746638 58.2144085,38.9640738 58.2686623,38.4338339 L58.4005117,38.0995951 C58.4005117,38.0995951 58.4654901,38.4284031 58.9064601,38.6110742 C58.9064601,38.6110742 58.5670583,38.0097407 58.5468708,37.7584445 C58.5247908,37.47407 58.5758903,37.190683 58.5758903,37.190683 C58.5758903,37.190683 58.7373901,37.3560744 58.6944917,37.6893257 C58.6944917,37.6893257 59.0313701,37.0593573 58.5948161,36.0191194 C58.4989256,35.7490624 58.3771699,35.2390644 58.2427971,34.8001601 C58.2131467,34.7053686 58.145014,34.3207718 58.1368129,34.2526405 C58.1248266,34.162786 58.1891741,34.1168714 58.1891741,34.1168714 C58.2055764,34.1213147 58.3519356,34.2378293 58.4068203,34.2664642 C58.4566581,34.3602683 58.5405622,34.4945562 58.6900757,34.6500735 C58.719726,34.672784 59.0679599,35.0114661 59.8704118,35.2183288 C59.9827046,35.2558504 60.2962412,35.3126265 60.5750806,35.3146014 C60.8842012,35.3160825 61.0393924,35.2321525 61.1920601,35.204505 C61.3403119,35.1773512 61.4879327,35.2662182 61.4879327,35.2662182 C61.4879327,35.2662182 61.6406005,35.4177859 61.8090397,35.5841647 C61.8084088,35.5915703 61.9080844,35.736226 61.8090397,35.8858188 C61.2822729,36.3020127 60.5435377,36.9867825 60.5567857,37.566393 C59.7171132,38.9788849 58.5847223,41.206485 58.4566581,41.4330959 C58.4566581,41.4330959 58.3052521,41.7135207 58.2989435,41.9282827 C58.2838029,42.0872559 58.4976639,42.2013019 58.6288824,42.3331213 C58.7090014,42.4135954 58.9285402,42.6643979 59.0231689,42.7522775 C59.3758188,43.0781232 59.7246835,43.3323816 60.1448352,43.6587211 L63.1212252,45.7411717 C62.8758212,45.8601547 62.614015,45.977163 62.3440076,46.0788664 C62.3730271,46.9823477 64.0517413,48.1948889 64.0517413,48.1948889 C65.2970558,48.2363602 65.8452718,47.34769 65.8452718,47.34769 C65.826346,46.4891358 64.8901521,45.3723735 64.8901521,45.3723735 L64.7248672,45.1600801 C64.8485155,45.0001194 64.9494528,44.8253476 65.033357,44.6367521 C65.1077983,44.7981938 65.1961185,44.9566733 65.3178741,45.0988606 C65.3178741,45.0988606 65.9752286,45.8226331 67.0539965,45.9663015 C67.4773025,46.2403081 69.7818282,47.6251525 73.9070114,48.2541336 C73.9391852,48.3084412 73.9707281,48.3676859 74.002271,48.4387795 C74.0804974,48.6179947 74.3240088,49.3032582 74.3990809,49.4553195 C74.5435475,49.7441373 74.8495138,50.2659842 75.3226577,50.8475695 L76.4657731,52.254137 L76.7326262,52.220565 C76.840503,52.3563341 76.9628895,52.5706024 76.866999,52.7670972 C76.866999,52.7670972 75.9781195,53.2351302 76.8878174,54.1030648 C76.8878174,54.1030648 77.0865378,54.2042745 77.2669633,54.1845262 C77.5912245,54.1489794 78.0050676,54.2294535 78.5217406,54.6856375 C78.5217406,54.6856375 79.1954974,55.3057318 79.9064749,55.2213082 L80.4742474,55.0944258 C80.4742474,55.0944258 80.9675787,54.9971658 80.1140273,54.1489794 C79.5109266,53.5496207 79.4219756,53.3259721 79.1311499,53.1038045 C78.8403241,52.8816369 78.4573931,52.6861295 78.4573931,52.6861295 L77.8795268,51.5145659 L77.9728938,51.3713913 L77.1868443,49.9786475 L75.8115729,47.3881738 C75.7459636,47.2296943 75.8178815,46.9458135 75.5800479,46.7399383 C75.5813096,46.7389508 75.4746945,46.6416908 75.3800658,46.592814 C75.2349683,46.5118462 75.0772537,46.4372967 74.9132305,46.3721275 L70.7665982,44.2575861 C70.7665982,44.2575861 72.104018,44.3128811 75.6443954,42.514805 C76.0494065,42.8110284 76.9414403,43.1492168 77.6170897,43.2760992 C78.8819608,43.5140653 80.1846834,43.910511 80.1846834,43.910511 C80.1846834,43.910511 80.2830973,43.8710145 80.3386129,43.7110539 C80.3386129,43.7110539 81.1234007,43.8502789 81.7435345,44.1311974 C81.7971575,44.1632883 81.8242844,44.2008099 81.8539348,44.2551176 C81.8539348,44.2551176 81.7611986,44.3731132 81.7750775,44.4402572 C81.7895872,44.5074012 82.0905067,44.5972556 82.0905067,44.5972556 C82.0905067,44.5972556 82.5781602,45.213894 83.0241771,45.0470215 C83.0241771,45.0470215 83.5843794,44.910265 83.7073968,44.6130542 C83.7073968,44.6130542 83.835461,44.1035499 84.8170767,43.8112762 C84.8170767,43.8112762 85.7986924,43.5190024 86.014446,42.999624 C86.014446,42.999624 86.3494318,42.3948346 85.0391389,42.6199643 L83.3585321,43.071705 L82.2848111,43.3486739 L80.7751669,42.7206803 C80.7764286,42.6785508 80.418101,42.5223752 79.7001842,42.2521536 C79.130519,41.9692603 77.7218122,41.2805408 76.8285167,40.9467958 C76.6033002,40.8475609 76.3377088,40.738452 76.3383397,40.7374646 C75.9043091,40.5696046 75.9781195,40.4130999 75.1043806,40.624406 L68.9654975,41.9539554 C68.7213553,41.5802202 68.165569,40.6841444 68.0349813,40.0729367 L67.3221113,38.2936215 C67.3221113,38.2936215 68.1908033,37.7377089 67.8116574,37.1344005 C67.8116574,37.1344005 67.7536185,37.0272664 67.3542851,36.7651087 C67.3542851,36.7651087 66.9328717,36.4906083 66.4155678,36.1000871 C67.3517617,34.669328 68.7156775,32.6806816 69.0733743,31.9811006 C69.0733743,31.9811006 69.4897408,31.3397769 69.7282053,30.4876409 L70.8113892,27.2430072 Z" id="Fill-4" fill="#FFFFFF" fill-rule="nonzero"></path>
        <path d="M48.9842395,84.2785694 C48.9091673,84.2321611 48.8328334,84.1847654 48.7975054,84.1506997 C48.0978834,83.4876529 46.5049659,81.6332944 46.1769195,81.3217661 C45.9371933,81.0941678 45.5176725,80.7243822 45.3801454,80.6873543 C45.7801096,80.1610641 46.4791007,79.2141366 47.1780918,78.2884384 C47.3219276,78.4409935 47.4739644,78.6004604 47.6392493,78.7747385 C47.6392493,78.7747385 48.3407639,79.6283556 48.9514348,80.8828618 C49.3343659,81.5162862 49.5204691,82.4883926 49.5204691,82.4883926 L49.7721816,82.5570177 C49.7829062,82.7238902 49.81508,82.9297655 49.8655487,83.1425527 C49.7431621,83.5784948 49.5539046,83.8618818 49.3583385,84.0509711 C49.2656023,84.1102158 49.1343838,84.1901961 48.9842395,84.2785694 Z M55.8113892,66.2430072 L55.9148499,66.1126689 C55.9148499,66.1126689 56.2384803,65.9067936 56.4189058,65.6895631 C56.4189058,65.6895631 56.5595872,65.5256528 56.5999622,65.3538432 C56.5999622,65.3538432 56.6844972,65.1316757 56.7494756,65.00035 C61.4506325,68.3378004 53.6052773,62.7688003 55.7060358,64.2592978 C55.6643992,64.321011 55.6082528,64.4009913 55.5293955,64.5081254 C55.5293955,64.5081254 55.3729426,64.7451041 55.2972396,64.9124704 C55.2511869,65.0151611 55.1508804,65.2472028 55.0959957,65.4328362 C55.0619294,65.5493507 54.9559452,65.8559419 54.9559452,65.8559419 C54.9559452,65.8559419 54.9079999,66.0282452 54.8802422,66.0948955 C54.6411468,66.6700626 53.9402631,67.6076097 53.8368023,67.7720137 L53.1857565,68.89865 C53.1857565,68.89865 52.7523567,69.6081051 52.4369275,70.5338033 C52.4369275,70.5338033 51.0149727,72.0149203 49.6706134,73.4249437 C49.5311937,73.525166 49.2151336,73.6974693 48.8656381,73.7720188 C48.6814274,73.5824358 48.4499024,73.3059607 48.4347618,73.2901621 C48.3988029,73.2511593 48.3249924,73.1425441 48.3735685,73.0028254 C48.4227755,72.8631067 48.6820583,72.580707 48.6820583,72.580707 C48.8057065,72.4814722 48.8252631,72.3200304 48.7583922,72.2430123 C48.6908903,72.1645131 48.5710272,72.1215607 48.5306523,72.1032936 C48.4921699,72.0855202 48.4568418,72.0208448 48.4625196,71.9744364 C48.4663047,71.9431684 48.3702039,71.9285218 48.1742173,71.9304966 L48.1376275,71.7468381 C48.0083015,71.690062 47.8682509,71.5957642 47.8758212,71.5612048 C47.8840224,71.5266454 47.9199813,71.4318539 47.9199813,71.2881855 C47.9199813,71.1701899 47.7780382,71.1879633 47.7780382,71.1879633 C47.7780382,71.1879633 47.1591661,71.1785829 47.115006,71.1741395 C47.0721076,71.1701899 46.9219633,71.104527 46.8771724,71.0595998 C46.8330123,71.0141789 46.7617253,70.9638209 46.7617253,70.9638209 C46.6639422,70.9223496 46.0696736,70.8354574 45.9826152,70.8413819 C45.8961875,70.8468127 45.5195651,70.7949736 45.484237,70.7702883 C45.4489089,70.7446156 45.2710069,70.6858646 45.132218,70.6276073 C44.9934292,70.5698438 44.4679241,70.8808784 44.3385981,70.9509846 C44.209903,71.0201034 43.7216186,71.4308665 43.4289003,71.8213877 C43.3670762,71.9033428 43.3254395,71.9813483 43.292004,72.0608349 C43.2915835,72.0611641 43.1954827,72.2207956 43.0037017,72.5397294 C43.0037017,72.5397294 42.8857312,72.5876189 42.8264305,72.6320524 C42.7046749,72.7174635 42.6403273,72.8986535 42.6403273,72.8986535 C42.6403273,72.8986535 42.5053236,73.4367927 42.418896,73.6826581 C42.418896,73.6826581 42.3375153,74.1462477 42.2870466,74.3363244 C42.2567654,74.4518516 42.1545663,75.1381024 42.1312246,75.2467177 C42.1078828,75.3548392 42.0485821,75.8628624 42.0485821,75.8628624 C42.0485821,75.8628624 41.9993752,76.1645166 42.000006,76.3531121 C42.0006369,76.5071483 42.1205,76.5777482 42.1482577,76.5940405 C42.1753847,76.6098391 42.3570719,76.7036432 42.3570719,76.7036432 C42.3570719,76.7036432 42.1924178,77.3602717 42.5696712,77.8441033 C42.5696712,77.8441033 42.5854426,77.6925356 42.775331,77.4382772 C42.775331,77.4382772 43.0207349,77.6076183 42.8750066,78.0746638 C42.8750066,78.0746638 43.2144085,77.9640738 43.2686623,77.4338339 L43.4005117,77.0995951 C43.4005117,77.0995951 43.4654901,77.4284031 43.9064601,77.6110742 C43.9064601,77.6110742 43.5670583,77.0097407 43.5468708,76.7584445 C43.5247908,76.47407 43.5758903,76.190683 43.5758903,76.190683 C43.5758903,76.190683 43.7373901,76.3560744 43.6944917,76.6893257 C43.6944917,76.6893257 44.0313701,76.0593573 43.5948161,75.0191194 C43.4989256,74.7490624 43.3771699,74.2390644 43.2427971,73.8001601 C43.2131467,73.7053686 43.145014,73.3207718 43.1368129,73.2526405 C43.1248266,73.162786 43.1891741,73.1168714 43.1891741,73.1168714 C43.2055764,73.1213147 43.3519356,73.2378293 43.4068203,73.2664642 C43.4566581,73.3602683 43.5405622,73.4945562 43.6900757,73.6500735 C43.719726,73.672784 44.0679599,74.0114661 44.8704118,74.2183288 C44.9827046,74.2558504 45.2962412,74.3126265 45.5750806,74.3146014 C45.8842012,74.3160825 46.0393924,74.2321525 46.1920601,74.204505 C46.3403119,74.1773512 46.4879327,74.2662182 46.4879327,74.2662182 C46.4879327,74.2662182 46.6406005,74.4177859 46.8090397,74.5841647 C46.8084088,74.5915703 46.9080844,74.736226 46.8090397,74.8858188 C46.2822729,75.3020127 45.5435377,75.9867825 45.5567857,76.566393 C44.7171132,77.9788849 43.5847223,80.206485 43.4566581,80.4330959 C43.4566581,80.4330959 43.3052521,80.7135207 43.2989435,80.9282827 C43.2838029,81.0872559 43.4976639,81.2013019 43.6288824,81.3331213 C43.7090014,81.4135954 43.9285402,81.6643979 44.0231689,81.7522775 C44.3758188,82.0781232 44.7246835,82.3323816 45.1448352,82.6587211 L48.1212252,84.7411717 C47.8758212,84.8601547 47.614015,84.977163 47.3440076,85.0788664 C47.3730271,85.9823477 49.0517413,87.1948889 49.0517413,87.1948889 C50.2970558,87.2363602 50.8452718,86.34769 50.8452718,86.34769 C50.826346,85.4891358 49.8901521,84.3723735 49.8901521,84.3723735 L49.7248672,84.1600801 C49.8485155,84.0001194 49.9494528,83.8253476 50.033357,83.6367521 C50.1077983,83.7981938 50.1961185,83.9566733 50.3178741,84.0988606 C50.3178741,84.0988606 50.9752286,84.8226331 52.0539965,84.9663015 C52.4773025,85.2403081 54.7818282,86.6251525 58.9070114,87.2541336 C58.9391852,87.3084412 58.9707281,87.3676859 59.002271,87.4387795 C59.0804974,87.6179947 59.3240088,88.3032582 59.3990809,88.4553195 C59.5435475,88.7441373 59.8495138,89.2659842 60.3226577,89.8475695 L61.4657731,91.254137 L61.7326262,91.220565 C61.840503,91.3563341 61.9628895,91.5706024 61.866999,91.7670972 C61.866999,91.7670972 60.9781195,92.2351302 61.8878174,93.1030648 C61.8878174,93.1030648 62.0865378,93.2042745 62.2669633,93.1845262 C62.5912245,93.1489794 63.0050676,93.2294535 63.5217406,93.6856375 C63.5217406,93.6856375 64.1954974,94.3057318 64.9064749,94.2213082 L65.4742474,94.0944258 C65.4742474,94.0944258 65.9675787,93.9971658 65.1140273,93.1489794 C64.5109266,92.5496207 64.4219756,92.3259721 64.1311499,92.1038045 C63.8403241,91.8816369 63.4573931,91.6861295 63.4573931,91.6861295 L62.8795268,90.5145659 L62.9728938,90.3713913 L62.1868443,88.9786475 L60.8115729,86.3881738 C60.7459636,86.2296943 60.8178815,85.9458135 60.5800479,85.7399383 C60.5813096,85.7389508 60.4746945,85.6416908 60.3800658,85.592814 C60.2349683,85.5118462 60.0772537,85.4372967 59.9132305,85.3721275 L55.7665982,83.2575861 C55.7665982,83.2575861 57.104018,83.3128811 60.6443954,81.514805 C61.0494065,81.8110284 61.9414403,82.1492168 62.6170897,82.2760992 C63.8819608,82.5140653 65.1846834,82.910511 65.1846834,82.910511 C65.1846834,82.910511 65.2830973,82.8710145 65.3386129,82.7110539 C65.3386129,82.7110539 66.1234007,82.8502789 66.7435345,83.1311974 C66.7971575,83.1632883 66.8242844,83.2008099 66.8539348,83.2551176 C66.8539348,83.2551176 66.7611986,83.3731132 66.7750775,83.4402572 C66.7895872,83.5074012 67.0905067,83.5972556 67.0905067,83.5972556 C67.0905067,83.5972556 67.5781602,84.213894 68.0241771,84.0470215 C68.0241771,84.0470215 68.5843794,83.910265 68.7073968,83.6130542 C68.7073968,83.6130542 68.835461,83.1035499 69.8170767,82.8112762 C69.8170767,82.8112762 70.7986924,82.5190024 71.014446,81.999624 C71.014446,81.999624 71.3494318,81.3948346 70.0391389,81.6199643 L68.3585321,82.071705 L67.2848111,82.3486739 L65.7751669,81.7206803 C65.7764286,81.6785508 65.418101,81.5223752 64.7001842,81.2521536 C64.130519,80.9692603 62.7218122,80.2805408 61.8285167,79.9467958 C61.6033002,79.8475609 61.3377088,79.738452 61.3383397,79.7374646 C60.9043091,79.5696046 60.9781195,79.4130999 60.1043806,79.624406 L53.9654975,80.9539554 C53.7213553,80.5802202 53.165569,79.6841444 53.0349813,79.0729367 L52.3221113,77.2936215 C52.3221113,77.2936215 53.1908033,76.7377089 52.8116574,76.1344005 C52.8116574,76.1344005 52.7536185,76.0272664 52.3542851,75.7651087 C52.3542851,75.7651087 51.9328717,75.4906083 51.4155678,75.1000871 C52.3517617,73.669328 53.7156775,71.6806816 54.0733743,70.9811006 C54.0733743,70.9811006 54.4897408,70.3397769 54.7282053,69.4876409 L55.8113892,66.2430072 Z" id="Fill-4" fill="#FFFFFF" fill-rule="nonzero"></path>
        <path d="M69.9,29.056 C69.9,29.056 70.123,28.724 70.187,28.376 C70.187,28.376 70.321,27.926 70.424,27.66 C77.876,34.42 88.954,44.476 93.143,48.307 L93.143,36.297 C93.143,33.452 91.611,30.823 89.125,29.4 L53.589,9.067 C52.346,8.356 50.959,8 49.571,8 C48.184,8 46.797,8.356 45.554,9.067 L10.018,29.4 C7.531,30.823 6,33.452 6,36.297 L6,48.307 C11.061,43.738 27.943,28.589 27.943,28.589 C28.094,28.454 28.329,28.33 28.625,28.33 C28.952,28.33 29.186,28.474 29.337,28.621 L36.832,35.844 C37.195,36.206 37.229,36.76 36.998,37.105 L30.6,46.708 C30.28,47.212 30.445,47.785 30.803,48.064 C31.201,48.377 31.759,48.38 32.156,48.012 L61.814,21.077 C62.015,20.894 62.282,20.822 62.489,20.822 C62.696,20.822 62.965,20.893 63.165,21.077 C63.165,21.077 65.44,23.14 68.77,26.159 C68.704,26.284 68.615,26.446 68.49,26.663" id="Fill-4" fill="#FFFFFF" fill-rule="nonzero"></path>
    </g>
</svg>